<svg width="720" height="960" xmlns="http://www.w3.org/2000/svg" xmlns:xlink="http://www.w3.org/1999/xlink" overflow="hidden"><defs><clipPath id="clip0"><rect x="0" y="0" width="720" height="960"/></clipPath></defs><g clip-path="url(#clip0)"><rect x="0" y="0" width="720" height="960" fill="#FFFFFF"/><path d="M91.5001 480.5C91.5001 331.935 211.935 211.5 360.5 211.5 509.065 211.5 629.5 331.935 629.5 480.5 629.5 629.065 509.065 749.5 360.5 749.5 211.935 749.5 91.5001 629.065 91.5001 480.5Z" stroke="#FF0000" stroke-width="1.33333" stroke-miterlimit="8" fill="#FF0000" fill-rule="evenodd"/><path d="M469.5 699.5C469.5 649.242 510.466 608.5 561 608.5 611.534 608.5 652.5 649.242 652.5 699.5 652.5 749.758 611.534 790.5 561 790.5 510.466 790.5 469.5 749.758 469.5 699.5Z" stroke="#990000" stroke-width="1.33333" stroke-miterlimit="8" fill="#990000" fill-rule="evenodd"/><path d="M357.809 0C496.606 0 622.882 80.2695 681.792 205.945" stroke="#7F7F7F" stroke-width="13.3333" stroke-linecap="round" stroke-miterlimit="8" stroke-dasharray="40 53.3333" stroke-opacity="0.94902" fill="none" fill-rule="evenodd" transform="matrix(-0.896542 0.442959 0.442959 0.896542 550.15 25.3848)"/><text fill="#FFFFFF" font-family="Calibri,Calibri_MSFontService,sans-serif" font-weight="400" font-size="80" transform="translate(290.917 371)">28%<tspan font-size="64" x="-141.827" y="82">Of homeless are </tspan><tspan font-size="64" x="-18.8733" y="159">youths</tspan></text></g></svg>